<?xml version="1.0" encoding="UTF-8" standalone="no"?>
<!-- Created with Inkscape (http://www.inkscape.org/) -->

<svg
   version="1.1"
   id="svg1"
   width="512"
   height="512"
   viewBox="0 0 512 512"
   sodipodi:docname="user-icon.png"
   xmlns:inkscape="http://www.inkscape.org/namespaces/inkscape"
   xmlns:sodipodi="http://sodipodi.sourceforge.net/DTD/sodipodi-0.dtd"
   xmlns="http://www.w3.org/2000/svg"
   xmlns:svg="http://www.w3.org/2000/svg">
  <defs
     id="defs1" />
  <sodipodi:namedview
     id="namedview1"
     pagecolor="#ffffff"
     bordercolor="#000000"
     borderopacity="0.25"
     inkscape:showpageshadow="2"
     inkscape:pageopacity="0.0"
     inkscape:pagecheckerboard="true"
     inkscape:deskcolor="#d1d1d1" />
  <g
     inkscape:groupmode="layer"
     inkscape:label="Image"
     id="g1">
    <path
       style="fill:#ffffff;fill-opacity:1"
       d="M 231.88614,479.54088 C 181.45056,474.05171 137.46237,453.37811 100.22036,417.66048 67.399475,386.18302 44.993403,346.07064 35.895379,302.50296 27.22083,260.96316 30.504023,216.7566 45.140207,178.02591 56.641795,147.59008 71.535041,124.04892 94.315966,100.29573 117.56446,76.055015 144.21092,58.243928 175.11584,46.287292 c 20.03771,-7.752283 35.41381,-11.427507 57.70969,-13.79388 17.2122,-1.826815 29.03782,-1.826815 46.25002,0 29.53597,3.134799 53.27739,10.205964 79.84667,23.781601 42.06549,21.493463 78.44744,58.689897 99.03383,101.250897 12.30827,25.44655 18.54818,47.31076 21.53602,75.46074 1.81788,17.12721 1.81557,28.97297 -0.009,46.16427 -3.1348,29.53597 -10.20596,53.27739 -23.7816,79.84667 -21.49347,42.06549 -58.6899,78.44744 -101.2509,99.03383 -38.93337,18.83173 -80.36307,26.10244 -122.5644,21.50946 z m 48.48799,-31.0259 c 40.25743,-5.27729 77.89695,-23.69317 106.37441,-52.04578 l 9.29799,-9.25723 -3.24326,-5.34303 c -12.41495,-20.45268 -33.66271,-41.84718 -53.35273,-53.72122 -14.24467,-8.59023 -19.00519,-10.45519 -27.84547,-10.90863 -7.80702,-0.40044 -8.73188,-0.20405 -21.70246,4.60842 -25.48812,9.45684 -42.41602,9.45684 -67.90414,0 -12.97058,-4.81247 -13.89544,-5.00886 -21.70246,-4.60842 -8.84028,0.45344 -13.6008,2.3184 -27.84547,10.90863 -19.69002,11.87404 -40.93778,33.26854 -53.35273,53.72122 l -3.24326,5.34303 9.29799,9.25723 c 28.05479,27.9318 65.9033,46.6304 105.21194,51.9787 13.71268,1.86574 36.06006,1.89571 50.00965,0.0671 z M 267.45054,301.49085 c 24.55809,-2.99627 49.00254,-20.43915 60.02435,-42.83172 6.55339,-13.31426 8.71902,-22.53742 8.71902,-37.13322 0,-14.30753 -2.19084,-23.81867 -8.2924,-36 -5.25531,-10.49184 -11.96512,-18.74014 -21.4549,-26.37427 -25.24411,-20.30785 -58.26133,-23.70908 -87.63485,-9.0276 -7.769,3.8831 -20.10168,14.01881 -25.94042,21.31935 -6.25094,7.81594 -12.30518,19.9403 -15.02155,30.08252 -2.97779,11.1183 -2.99141,28.78457 -0.0308,40 8.65389,32.78317 35.84487,56.45884 69.37607,60.40696 7.13498,0.84011 10.31583,0.7707 20.25551,-0.44202 z"
       id="path1" />
  </g>
</svg>
